# xmcd CD database file
#
# Track frame offsets:
#	150
#	15664
#	26323
#	36616
#	49010
#	64450
#	78659
#	90687
#	105945
#	118007
#	131563
#	144613
#	158604
#	169600
#	184648
#	196439
#	207689
#	221808
#	235105
#	249598
#	263665
#	276869
#	289432
#	300810
#	311690
#	326161
#
# Disc length: 4503 seconds
#
# Revision: 1
# Processed by: cddbd v1.5.2PL0 Copyright (c) Steve Scherf et al.
# Submitted via: CDex 1.51
#
DISCID=7f11951a
DTITLE=Mills Brothers - The Mills Brothers Collection 1931-52_CD2
DYEAR=2014
DGENRE=Blues
TTITLE0=The Mills Brothers - You Tell Me Your Dream, I'll Tell You Mine
TTITLE1=The Mills Brothers - Asleep In The Deep
TTITLE2=The Mills Brothers - It Don't Mean a Thing If It Ain't Got That Swing
TTITLE3=The Mills Brothers with Louis Armstrong - Cherry
TTITLE4=The Mills Brothers - On The Banks Of The Wabash, Far Away
TTITLE5=The Mills Brothers with Benny Carter and His Orch. - By The Watermelon Vine Lindy Lou
TTITLE6=The Mills Brothers - Lazy River
TTITLE7=The Mills Brothers - You Always Hurt The One You Love
TTITLE8=The Mills Brothers - Till Then
TTITLE9=The Mills Brothers - Put Another Chair At The Table
TTITLE10=The Mills Brothers - I Wish
TTITLE11=The Mills Brothers - When You Were Sweet Sixteen
TTITLE12=The Mills Brothers - I Guess I'll Get The Papers And Go Home
TTITLE13=The Mills Brothers - I'm Afraid To Love You
TTITLE14=The Mills Brothers - You Broke The Only Heart That Ever Loved You by
TTITLE15=The Mills Brothers - Across the Alley From the Alamo
TTITLE16=The Mills Brothers - Dream, Dream, Dream
TTITLE17=The Mills Brothers - Gloria
TTITLE18=The Mills Brothers - I've Got My Love To Keep Me Warm
TTITLE19=The Mills Brothers - I Love You So Much It Hurts
TTITLE20=The Mills Brothers - Daddys Little Girl
TTITLE21=The Mills Brothers - Nevertheless (Im In Love With You)
TTITLE22=The Mills Brothers - Please Don't Talk About Me When I'm Gone
TTITLE23=The Mills Brothers - I Got Her Off My Hands
TTITLE24=The Mills Brothers with Sy Oliver and His Orch. - Be My Lifes Companion
TTITLE25=The Mills Brothers with Sy Oliver and His Orch. - Glow Worm
EXTD=YEAR: 2014
EXTT0=
EXTT1=
EXTT2=
EXTT3=
EXTT4=
EXTT5=
EXTT6=
EXTT7=
EXTT8=
EXTT9=
EXTT10=
EXTT11=
EXTT12=
EXTT13=
EXTT14=
EXTT15=
EXTT16=
EXTT17=
EXTT18=
EXTT19=
EXTT20=
EXTT21=
EXTT22=
EXTT23=
EXTT24=
EXTT25=
PLAYORDER=
